<svg xmlns="http://www.w3.org/2000/svg" version="1.1" xmlns:xlink="http://www.w3.org/1999/xlink" xmlns:svgjs="http://svgjs.dev/svgjs" width="1500" height="1500" viewBox="0 0 1500 1500"><rect width="1500" height="1500" fill="#000005"></rect><g transform="matrix(0.6666666666666666,0,0,0.6666666666666666,249.39393939393938,641.9930789774214)"><svg viewBox="0 0 396 86" data-background-color="#000005" preserveAspectRatio="xMidYMid meet" height="325" width="1500" xmlns="http://www.w3.org/2000/svg" xmlns:xlink="http://www.w3.org/1999/xlink"><g id="tight-bounds" transform="matrix(1,0,0,1,0.2400000000000091,-0.12956057873037707)"><svg viewBox="0 0 395.52 85.43286715048058" height="85.43286715048058" width="395.52"><g><svg viewBox="0 0 395.52 85.43286715048058" height="85.43286715048058" width="395.52"><g><svg viewBox="0 0 478.69056810453435 103.3978249167242" height="85.43286715048058" width="395.52"><g><svg viewBox="0 0 395.52 103.3978249167242" height="103.3978249167242" width="395.52"><g id="textblocktransform"><svg viewBox="0 0 395.52 103.3978249167242" height="103.3978249167242" width="395.52" id="textblock"><g><rect width="395.52" height="82.82725113490494" fill="none" stroke-width="8.962371322224001" stroke="#0066ff" data-fill-palette-color="none" data-stroke-palette-color="tertiary"></rect><rect width="395.52" height="21.570573781819256" y="82.82725113490494" fill="#0066ff" data-fill-palette-color="tertiary"></rect></g><g><svg viewBox="0 0 395.52 81.82725113490494" height="81.82725113490494" width="395.52"><g transform="matrix(1,0,0,1,23.461705032,23.461705031999998)"><svg width="348.596589936" viewBox="4.9 -36.2 473.36 47.400000000000006" height="34.903841070904946" data-palette-color="#ffffff"><path d="M9.1 0L4.9 0 4.9-32.8 9.1-32.8 9.1-16.35 9.25-16.35 23.05-32.8 27.8-32.8 17.4-20.35 29 0 24.3 0 14.75-17.2 9.1-10.45 9.1 0ZM42.3 0.6L42.3 0.6Q40.6 0.6 39.1 0.13 37.6-0.35 36.47-1.23 35.35-2.1 34.7-3.38 34.05-4.65 34.05-6.3L34.05-6.3Q34.05-8.35 35.02-9.88 36-11.4 38.12-12.5 40.25-13.6 43.6-14.3 46.95-15 51.65-15.4L51.65-15.4Q51.6-16.65 51.25-17.75 50.9-18.85 50.15-19.68 49.4-20.5 48.17-21 46.95-21.5 45.2-21.5L45.2-21.5Q42.8-21.5 40.6-20.58 38.4-19.65 36.7-18.6L36.7-18.6 35.1-21.4Q36-22 37.22-22.63 38.45-23.25 39.82-23.75 41.2-24.25 42.75-24.58 44.3-24.9 45.9-24.9L45.9-24.9Q50.9-24.9 53.32-22.18 55.75-19.45 55.75-14.9L55.75-14.9 55.75 0 52.4 0 52.05-3.3 51.9-3.3Q49.85-1.7 47.37-0.55 44.9 0.6 42.3 0.6ZM43.4-2.7L43.4-2.7Q45.5-2.7 47.52-3.63 49.55-4.55 51.65-6.3L51.65-6.3 51.65-12.7Q47.75-12.4 45.12-11.85 42.5-11.3 40.92-10.53 39.35-9.75 38.7-8.78 38.05-7.8 38.05-6.6L38.05-6.6Q38.05-5.55 38.5-4.83 38.95-4.1 39.67-3.63 40.4-3.15 41.37-2.93 42.35-2.7 43.4-2.7ZM71.4 0L67.3 0 67.3-24.3 70.7-24.3 71.05-18.55 71.2-18.55Q73.09-21.5 75.87-23.2 78.65-24.9 82.05-24.9L82.05-24.9Q83.4-24.9 84.55-24.68 85.7-24.45 86.84-23.9L86.84-23.9 85.9-20.35Q84.59-20.8 83.72-21 82.84-21.2 81.4-21.2L81.4-21.2Q78.65-21.2 76.12-19.63 73.59-18.05 71.4-14.25L71.4-14.25 71.4 0ZM117.04 0L96.69 0 96.69-32.8 100.79-32.8 100.79-3.55 117.04-3.55 117.04 0ZM139.89 0L135.79 0 135.79-20.95 124.49-20.95 124.49-24.3 139.89-24.3 139.89 0ZM137.39-29.4L137.39-29.4Q135.99-29.4 135.04-30.28 134.09-31.15 134.09-32.6L134.09-32.6Q134.09-34.05 135.04-34.93 135.99-35.8 137.39-35.8L137.39-35.8Q138.79-35.8 139.74-34.93 140.69-34.05 140.69-32.6L140.69-32.6Q140.69-31.15 139.74-30.28 138.79-29.4 137.39-29.4ZM166.14 0L162.09 0 162.09-20.95 155.14-20.95 155.14-24.05 162.09-24.3 162.09-26.35Q162.09-30.8 164.46-33.5 166.84-36.2 171.89-36.2L171.89-36.2Q175.49-36.2 178.89-34.8L178.89-34.8 177.94-31.7Q176.44-32.4 175.16-32.63 173.89-32.85 172.29-32.85L172.29-32.85Q168.99-32.85 167.56-31.18 166.14-29.5 166.14-26.5L166.14-26.5 166.14-24.3 176.34-24.3 176.34-20.95 166.14-20.95 166.14 0ZM199.69 0.6L199.69 0.6Q197.04 0.6 195.24-0.13 193.44-0.85 192.34-2.18 191.24-3.5 190.76-5.35 190.29-7.2 190.29-9.45L190.29-9.45 190.29-20.95 183.44-20.95 183.44-24.05 190.44-24.3 190.99-32.1 194.39-32.1 194.39-24.3 206.34-24.3 206.34-20.95 194.39-20.95 194.39-9.4Q194.39-7.75 194.69-6.53 194.99-5.3 195.69-4.45 196.39-3.6 197.59-3.18 198.79-2.75 200.54-2.75L200.54-2.75Q202.29-2.75 203.69-3.05 205.09-3.35 206.39-3.85L206.39-3.85 207.29-0.85Q205.64-0.25 203.81 0.18 201.99 0.6 199.69 0.6ZM257.53 0.6L257.53 0.6Q254.48 0.6 251.88-0.55 249.28-1.7 247.36-3.88 245.43-6.05 244.33-9.22 243.23-12.4 243.23-16.4L243.23-16.4Q243.23-20.35 244.33-23.5 245.43-26.65 247.38-28.85 249.33-31.05 252.03-32.23 254.73-33.4 257.93-33.4L257.93-33.4Q260.88-33.4 263.16-32.2 265.43-31 266.88-29.4L266.88-29.4 264.53-26.75Q263.23-28.1 261.63-28.93 260.03-29.75 257.93-29.75L257.93-29.75Q255.58-29.75 253.66-28.83 251.73-27.9 250.38-26.18 249.03-24.45 248.28-22 247.53-19.55 247.53-16.5L247.53-16.5Q247.53-13.4 248.28-10.93 249.03-8.45 250.38-6.7 251.73-4.95 253.66-4 255.58-3.05 257.93-3.05L257.93-3.05Q260.18-3.05 261.96-4 263.73-4.95 265.33-6.7L265.33-6.7 267.68-4.15Q265.73-1.9 263.28-0.65 260.83 0.6 257.53 0.6ZM284.98 0.6L284.98 0.6Q282.58 0.6 280.4-0.25 278.23-1.1 276.58-2.73 274.93-4.35 273.95-6.73 272.98-9.1 272.98-12.1L272.98-12.1Q272.98-15.15 273.95-17.53 274.93-19.9 276.58-21.55 278.23-23.2 280.4-24.05 282.58-24.9 284.98-24.9L284.98-24.9Q287.38-24.9 289.55-24.05 291.73-23.2 293.38-21.55 295.03-19.9 296-17.53 296.98-15.15 296.98-12.1L296.98-12.1Q296.98-9.1 296-6.73 295.03-4.35 293.38-2.73 291.73-1.1 289.55-0.25 287.38 0.6 284.98 0.6ZM284.98-2.8L284.98-2.8Q286.73-2.8 288.15-3.48 289.58-4.15 290.6-5.38 291.63-6.6 292.18-8.3 292.73-10 292.73-12.1L292.73-12.1Q292.73-14.2 292.18-15.93 291.63-17.65 290.6-18.9 289.58-20.15 288.15-20.83 286.73-21.5 284.98-21.5L284.98-21.5Q283.23-21.5 281.8-20.83 280.38-20.15 279.35-18.9 278.33-17.65 277.78-15.93 277.23-14.2 277.23-12.1L277.23-12.1Q277.23-10 277.78-8.3 278.33-6.6 279.35-5.38 280.38-4.15 281.8-3.48 283.23-2.8 284.98-2.8ZM312.28 0.6L312.28 0.6Q310.58 0.6 309.08 0.13 307.58-0.35 306.45-1.23 305.33-2.1 304.68-3.38 304.03-4.65 304.03-6.3L304.03-6.3Q304.03-8.35 305-9.88 305.98-11.4 308.1-12.5 310.23-13.6 313.58-14.3 316.93-15 321.63-15.4L321.63-15.4Q321.58-16.65 321.23-17.75 320.88-18.85 320.13-19.68 319.38-20.5 318.15-21 316.93-21.5 315.18-21.5L315.18-21.5Q312.78-21.5 310.58-20.58 308.38-19.65 306.68-18.6L306.68-18.6 305.08-21.4Q305.98-22 307.2-22.63 308.43-23.25 309.8-23.75 311.18-24.25 312.73-24.58 314.28-24.9 315.88-24.9L315.88-24.9Q320.88-24.9 323.3-22.18 325.73-19.45 325.73-14.9L325.73-14.9 325.73 0 322.38 0 322.03-3.3 321.88-3.3Q319.83-1.7 317.35-0.55 314.88 0.6 312.28 0.6ZM313.38-2.7L313.38-2.7Q315.48-2.7 317.5-3.63 319.53-4.55 321.63-6.3L321.63-6.3 321.63-12.7Q317.73-12.4 315.1-11.85 312.48-11.3 310.9-10.53 309.33-9.75 308.68-8.78 308.03-7.8 308.03-6.6L308.03-6.6Q308.03-5.55 308.48-4.83 308.93-4.1 309.65-3.63 310.38-3.15 311.35-2.93 312.33-2.7 313.38-2.7ZM347.27 0.6L347.27 0.6Q344.42 0.6 342-0.25 339.57-1.1 337.77-2.73 335.97-4.35 334.97-6.73 333.97-9.1 333.97-12.1L333.97-12.1Q333.97-15.15 335.05-17.53 336.12-19.9 337.97-21.55 339.82-23.2 342.3-24.05 344.77-24.9 347.52-24.9L347.52-24.9Q350.52-24.9 352.7-23.85 354.87-22.8 356.37-21.35L356.37-21.35 354.32-18.7Q352.82-20 351.2-20.75 349.57-21.5 347.67-21.5L347.67-21.5Q345.57-21.5 343.82-20.83 342.07-20.15 340.85-18.9 339.62-17.65 338.92-15.93 338.22-14.2 338.22-12.1L338.22-12.1Q338.22-10 338.9-8.3 339.57-6.6 340.8-5.38 342.02-4.15 343.75-3.48 345.47-2.8 347.57-2.8L347.57-2.8Q349.82-2.8 351.7-3.68 353.57-4.55 355.07-5.85L355.07-5.85 356.92-3.2Q354.87-1.4 352.42-0.4 349.97 0.6 347.27 0.6ZM368.72 0L364.62 0 364.62-35.6 368.72-35.6 368.72-25.9 368.47-20.15 368.62-20.15Q370.52-22.2 372.7-23.55 374.87-24.9 377.72-24.9L377.72-24.9Q382.07-24.9 384.1-22.43 386.12-19.95 386.12-15.1L386.12-15.1 386.12 0 382.02 0 382.02-14.55Q382.02-18 380.72-19.68 379.42-21.35 376.42-21.35L376.42-21.35Q375.32-21.35 374.4-21.08 373.47-20.8 372.57-20.25 371.67-19.7 370.72-18.88 369.77-18.05 368.72-16.95L368.72-16.95 368.72 0ZM409.87 0L405.77 0 405.77-20.95 394.47-20.95 394.47-24.3 409.87-24.3 409.87 0ZM407.37-29.4L407.37-29.4Q405.97-29.4 405.02-30.28 404.07-31.15 404.07-32.6L404.07-32.6Q404.07-34.05 405.02-34.93 405.97-35.8 407.37-35.8L407.37-35.8Q408.77-35.8 409.72-34.93 410.67-34.05 410.67-32.6L410.67-32.6Q410.67-31.15 409.72-30.28 408.77-29.4 407.37-29.4ZM428.72 0L424.62 0 424.62-24.3 428.02-24.3 428.37-20.15 428.57-20.15Q430.47-22.2 432.67-23.55 434.87-24.9 437.72-24.9L437.72-24.9Q442.07-24.9 444.09-22.43 446.12-19.95 446.12-15.1L446.12-15.1 446.12 0 442.02 0 442.02-14.55Q442.02-18 440.72-19.68 439.42-21.35 436.42-21.35L436.42-21.35Q435.32-21.35 434.39-21.08 433.47-20.8 432.57-20.25 431.67-19.7 430.72-18.88 429.77-18.05 428.72-16.95L428.72-16.95 428.72 0ZM464.76 11.2L464.76 11.2Q459.41 11.2 456.49 9.45 453.56 7.7 453.56 4.45L453.56 4.45Q453.56 3 454.59 1.6 455.61 0.2 457.56-0.95L457.56-0.95 457.56-1.15Q456.56-1.7 455.81-2.65 455.06-3.6 455.06-5.15L455.06-5.15Q455.06-6.3 455.81-7.53 456.56-8.75 457.96-9.7L457.96-9.7 457.96-9.9Q456.71-10.85 455.84-12.43 454.96-14 454.96-16.2L454.96-16.2Q454.96-18.2 455.74-19.8 456.51-21.4 457.81-22.53 459.11-23.65 460.84-24.28 462.56-24.9 464.51-24.9L464.51-24.9Q466.51-24.9 468.11-24.3L468.11-24.3 478.16-24.3 478.16-20.95 471.86-20.95Q472.71-20.1 473.31-18.8 473.91-17.5 473.91-16.05L473.91-16.05Q473.91-14.1 473.19-12.55 472.46-11 471.19-9.93 469.91-8.85 468.19-8.28 466.46-7.7 464.51-7.7L464.51-7.7Q463.56-7.7 462.49-7.93 461.41-8.15 460.41-8.6L460.41-8.6Q458.51-7.4 458.51-5.8L458.51-5.8Q458.51-4.35 459.84-3.68 461.16-3 463.56-3L463.56-3 469.01-3Q473.71-3 475.99-1.7 478.26-0.4 478.26 2.7L478.26 2.7Q478.26 4.4 477.31 5.95 476.36 7.5 474.61 8.65 472.86 9.8 470.36 10.5 467.86 11.2 464.76 11.2ZM464.51-10.45L464.51-10.45Q466.86-10.45 468.49-12 470.11-13.55 470.11-16.2L470.11-16.2Q470.11-17.45 469.66-18.5 469.21-19.55 468.46-20.3 467.71-21.05 466.69-21.48 465.66-21.9 464.51-21.9L464.51-21.9Q463.36-21.9 462.34-21.48 461.31-21.05 460.56-20.3 459.81-19.55 459.36-18.5 458.91-17.45 458.91-16.2L458.91-16.2Q458.91-13.55 460.56-12 462.21-10.45 464.51-10.45ZM465.06 8.2L465.06 8.2Q467.16 8.2 468.86 7.8 470.56 7.4 471.76 6.73 472.96 6.05 473.59 5.18 474.21 4.3 474.21 3.35L474.21 3.35Q474.21 1.6 472.84 1 471.46 0.4 468.66 0.4L468.66 0.4 463.91 0.4Q462.86 0.4 461.94 0.33 461.01 0.25 460.21 0L460.21 0Q458.46 0.95 457.79 1.98 457.11 3 457.11 4.05L457.11 4.05Q457.11 5.95 459.14 7.08 461.16 8.2 465.06 8.2Z" opacity="1" transform="matrix(1,0,0,1,0,0)" fill="#ffffff" class="wordmark-text-0" data-fill-palette-color="primary" id="text-0"></path></svg></g></svg></g><g transform="matrix(1,0,0,1,114.3974183136728,81.82725113490494)"><svg viewBox="0 0 166.72516337265438 21.570573781819256" height="21.570573781819256" width="166.72516337265438"><g transform="matrix(1,0,0,1,20.000000000000007,3.2)"><svg width="126.72516337265436" viewBox="2 -37.8 417.21 49.949999999999996" height="15.170573781819256" data-palette-color="#ffffff"><path d="M12.05 0L3.05 0 3-27.4 2-32.4 3.05-35.4 12.05-35.4 12.05 0ZM28.9-31.45L22.55-25.05 16.2-31.45 22.55-37.8 28.9-31.45ZM27.05 0L18.05 0 18.05-16.55 17-20.55 18-23.6 27.05-23.6 27.05 0ZM42.3 0L33.3 0 33.3-16.2 30.64-21.2 33.3-23.6Q33.05-24.45 32.92-25.88 32.8-27.3 32.8-28.2L32.8-28.2Q32.8-31.05 34.12-33.2 35.45-35.35 37.8-36.58 40.14-37.8 43.09-37.8L43.09-37.8Q44.5-37.8 46.07-37.68 47.64-37.55 48.8-37.25L48.8-37.25 54.14-34.2 50.3-27.25 44.55-30.75Q42.84-30.75 42.05-29.53 41.25-28.3 41.25-26.8L41.25-26.8Q41.25-25.7 41.59-24.85 41.95-24 42.3-23.6L42.3-23.6 50.3-23.6 50.3-17.6 42.3-17.6 42.3-8.1 42.8-3.05 42.3 0ZM65.14 0.5L65.14 0.5Q61.29 0.5 58.29-0.65 55.29-1.8 53.59-4.5 51.89-7.2 51.89-11.8L51.89-11.8Q51.89-15.1 53.02-17.45 54.14-19.8 56.04-21.28 57.94-22.75 60.29-23.43 62.64-24.1 65.14-24.1L65.14-24.1Q69.44-24.1 71.77-23.25 74.09-22.4 74.84-21.9L74.84-21.9 77.34-13.95 76.34-10.85 60.84-10.85Q61.19-9 62.69-7.75 64.19-6.5 67.64-6.5L67.64-6.5Q70.34-6.5 72.29-7.1 74.24-7.7 75.34-8.15L75.34-8.15 75.34-1.45Q73.84-0.65 71.02-0.08 68.19 0.5 65.14 0.5ZM60.89-14.05L60.89-14.05 67.79-15.05 67.34-17.2Q66.99-17.4 66.32-17.5 65.64-17.6 65.14-17.6L65.14-17.6Q63.74-17.6 62.82-17 61.89-16.4 61.42-15.58 60.94-14.75 60.89-14.05ZM91.29 0.5L91.29 0.5Q87.64 0.5 84.84-0.25 82.04-1 80.49-1.8L80.49-1.8 80.49-8.75Q82.54-7.85 84.72-7.35 86.89-6.85 88.64-6.68 90.39-6.5 91.14-6.5L91.14-6.5Q91.99-6.5 92.34-6.78 92.69-7.05 92.69-7.45L92.69-7.45Q92.69-8 91.79-8.38 90.89-8.75 88.39-9.35L88.39-9.35Q86.34-9.85 84.42-10.63 82.49-11.4 81.27-12.8 80.04-14.2 80.04-16.55L80.04-16.55Q80.04-19.45 81.39-21.1 82.74-22.75 85.24-23.43 87.74-24.1 91.09-24.1L91.09-24.1Q92.99-24.1 94.64-23.9 96.29-23.7 96.99-23.6L96.99-23.6 101.64-20.6 99.39-15.25 90.64-17.15Q89.04-17.15 89.04-16.1L89.04-16.1Q89.04-15 91.34-14.45L91.34-14.45Q93.14-14.05 95.04-13.58 96.94-13.1 98.52-12.35 100.09-11.6 101.07-10.35 102.04-9.1 102.04-7.05L102.04-7.05Q102.04-3.25 99.32-1.38 96.59 0.5 91.29 0.5ZM115.19 0.5L115.19 0.5Q111.79 0.5 109.74-1.5 107.69-3.5 107.69-6.55L107.69-6.55 107.69-17.45 104.04-17.45 104.04-22.2 107.19-24.65 110.74-30.85 116.64-30.85 116.64-23.6 123.64-23.6 123.64-17.1 116.64-17.1 116.64-6.4 123.64-6.45 123.64-1Q123.64-1 122.46-0.63 121.29-0.25 119.39 0.13 117.49 0.5 115.19 0.5ZM130.19 12.15L130.19 12.15 123.14 9.65 125.14 2.2 132.14 4.2Q134.29 4.2 135.26 3.08 136.24 1.95 136.74-0.05L136.74-0.05 131.59-0.05 126.09-17.15 125.14-23.65 134.64-23.65 137.39-7.15 138.39-7.15 141.14-23.65 150.64-23.65Q150.64-23.65 150.31-22.08 149.99-20.5 149.41-17.9 148.84-15.3 148.06-12.18 147.29-9.05 146.44-5.88 145.59-2.7 144.69-0.05L144.69-0.05Q143.34 4.1 141.46 6.8 139.59 9.5 136.89 10.83 134.19 12.15 130.19 12.15ZM163.18 0L154.18 0 154.13-27.4 153.13-32.4 154.18-35.4 163.18-35.4 163.18 0ZM180.68 0.5L180.68 0.5Q176.83 0.5 173.83-0.65 170.83-1.8 169.13-4.5 167.43-7.2 167.43-11.8L167.43-11.8Q167.43-15.1 168.56-17.45 169.68-19.8 171.58-21.28 173.48-22.75 175.83-23.43 178.18-24.1 180.68-24.1L180.68-24.1Q184.98-24.1 187.31-23.25 189.63-22.4 190.38-21.9L190.38-21.9 192.88-13.95 191.88-10.85 176.38-10.85Q176.73-9 178.23-7.75 179.73-6.5 183.18-6.5L183.18-6.5Q185.88-6.5 187.83-7.1 189.78-7.7 190.88-8.15L190.88-8.15 190.88-1.45Q189.38-0.65 186.56-0.08 183.73 0.5 180.68 0.5ZM176.43-14.05L176.43-14.05 183.33-15.05 182.88-17.2Q182.53-17.4 181.86-17.5 181.18-17.6 180.68-17.6L180.68-17.6Q179.28-17.6 178.36-17 177.43-16.4 176.96-15.58 176.48-14.75 176.43-14.05ZM219.58 0.5L219.58 0.5Q216.13 0.5 213.35-0.65 210.58-1.8 208.95-4.5 207.33-7.2 207.33-11.8L207.33-11.8Q207.33-16.45 209.08-19.13 210.83-21.8 213.63-22.95 216.43-24.1 219.58-24.1L219.58-24.1Q222.33-24.1 224.3-23.9 226.28-23.7 226.93-23.55L226.93-23.55 230.83-19.15 226.83-13.7 221.08-17.1Q216.78-17.1 216.78-11.8L216.78-11.8Q216.78-9.05 218.08-7.78 219.38-6.5 222.08-6.5L222.08-6.5Q224.78-6.5 226.93-7.25 229.08-8 230.28-8.65L230.28-8.65 230.28-1.45Q228.73-0.65 226.2-0.08 223.68 0.5 219.58 0.5ZM246.87 0.5L246.87 0.5Q240.77 0.5 237.42-2.4 234.07-5.3 234.07-11.8L234.07-11.8Q234.07-18.35 237.42-21.23 240.77-24.1 246.87-24.1L246.87-24.1Q253.12-24.1 256.35-21.23 259.57-18.35 259.57-11.8L259.57-11.8Q259.57-5.3 256.35-2.4 253.12 0.5 246.87 0.5ZM246.87-6L246.87-6Q248.92-6 249.72-7.53 250.52-9.05 250.52-11.8L250.52-11.8Q250.52-14.6 249.72-16.1 248.92-17.6 246.87-17.6L246.87-17.6Q244.77-17.6 243.95-16.1 243.12-14.6 243.12-11.8L243.12-11.8Q243.12-9.05 243.95-7.53 244.77-6 246.87-6ZM270.32 0.5L270.32 0.5Q268.17 0.5 266.35-0.13 264.52-0.75 263.42-2.3 262.32-3.85 262.32-6.6L262.32-6.6Q262.32-9.1 263.57-10.75 264.82-12.4 266.97-13.2 269.12-14 271.82-14L271.82-14Q274.42-14 275.72-13.43 277.02-12.85 277.97-12.25L277.97-12.25 278.32-12.55Q278.32-14.05 278.07-15.05 277.82-16.05 276.92-16.57 276.02-17.1 274.12-17.1L274.12-17.1Q272.27-17.1 270.2-16.78 268.12-16.45 266.4-15.98 264.67-15.5 263.82-15.05L263.82-15.05 263.82-22.55Q265.37-23.1 268.25-23.58 271.12-24.05 275.32-24.05L275.32-24.05Q279.82-24.05 282.45-22.93 285.07-21.8 286.22-19.68 287.37-17.55 287.37-14.6L287.37-14.6 287.37-7.95 288.37-2.9 287.37 0.05 278.82 0.05 278.82-2.4 278.32-2.65Q277.92-2.25 276.92-1.5 275.92-0.75 274.27-0.13 272.62 0.5 270.32 0.5ZM274.57-6.05L274.57-6.05Q275.92-6.05 276.9-6.3 277.87-6.55 278.32-6.75L278.32-6.75 278.32-7.7Q278.32-8.35 277.4-8.95 276.47-9.55 274.52-9.55L274.52-9.55Q271.82-9.55 271.82-7.65L271.82-7.65Q271.82-6.85 272.42-6.45 273.02-6.05 274.57-6.05ZM303.87 0.5L303.87 0.5Q300.42 0.5 297.64-0.65 294.87-1.8 293.24-4.5 291.62-7.2 291.62-11.8L291.62-11.8Q291.62-16.45 293.37-19.13 295.12-21.8 297.92-22.95 300.72-24.1 303.87-24.1L303.87-24.1Q306.62-24.1 308.59-23.9 310.57-23.7 311.22-23.55L311.22-23.55 315.12-19.15 311.12-13.7 305.37-17.1Q301.07-17.1 301.07-11.8L301.07-11.8Q301.07-9.05 302.37-7.78 303.67-6.5 306.37-6.5L306.37-6.5Q309.07-6.5 311.22-7.25 313.37-8 314.57-8.65L314.57-8.65 314.57-1.45Q313.02-0.65 310.49-0.08 307.97 0.5 303.87 0.5ZM329.12 0L320.12 0 320.12-27.4 319.12-32.4 320.12-35.4 329.12-35.4 329.12-27.3 328.62-21.75 329.12-21.5Q329.72-22.4 331.34-23.28 332.97-24.15 335.62-24.15L335.62-24.15Q340.12-24.15 342.37-21.6 344.62-19.05 344.62-14.45L344.62-14.45 344.62-7.95 345.67-3.05 344.62 0 335.62 0 335.62-13.15Q335.62-15.05 334.79-16.07 333.97-17.1 332.22-17.1L332.22-17.1 329.12-15.65 329.12 0ZM361.31-31.45L354.96-25.05 348.61-31.45 354.96-37.8 361.31-31.45ZM359.46 0L350.46 0 350.46-16.55 349.41-20.55 350.41-23.6 359.46-23.6 359.46 0ZM374.06 0L365.06 0 365.06-15.05 364.06-20.55 365.61-23.6 373.06-23.6 373.06-21.45 373.51-21.15Q374.06-21.65 375.04-22.33 376.01-23 377.41-23.55 378.81-24.1 380.56-24.1L380.56-24.1Q385.06-24.1 387.31-21.55 389.56-19 389.56-14.4L389.56-14.4 389.56-8.05 390.61-3.05 389.56 0 380.56 0 380.56-13.1Q380.56-15 379.74-16.03 378.91-17.05 377.16-17.05L377.16-17.05 374.06-16.1 374.06 0ZM405.21 12.15L405.21 12.15Q403.96 12.15 402.36 12.08 400.76 12 399.76 11.9L399.76 11.9 393.66 8.95 396.16 2.45 404.01 5Q410.66 5 410.66-0.55L410.66-0.55 410.66-1.5 410.16-1.75Q409.46-1.05 407.93-0.33 406.41 0.4 403.16 0.4L403.16 0.4Q400.81 0.4 398.61-0.78 396.41-1.95 395.03-4.55 393.66-7.15 393.66-11.3L393.66-11.3Q393.66-15.95 395.06-18.78 396.46-21.6 398.63-22.9 400.81-24.2 403.16-24.2L403.16-24.2Q405.76-24.2 407.43-23.45 409.11-22.7 409.66-22L409.66-22 409.66-23.65 418.71-23.65 419.21-20.65 418.66-17.65 418.71-0.05Q418.71 4.25 417.03 6.95 415.36 9.65 412.33 10.9 409.31 12.15 405.21 12.15ZM406.91-6.65L406.91-6.65Q407.81-6.65 408.56-6.9 409.31-7.15 409.66-7.35L409.66-7.35 409.66-16.7Q409.46-16.85 408.91-17 408.36-17.15 407.41-17.15L407.41-17.15Q405.46-17.15 404.31-15.9 403.16-14.65 403.16-11.85L403.16-11.85Q403.16-9.1 404.26-7.88 405.36-6.65 406.91-6.65Z" opacity="1" transform="matrix(1,0,0,1,0,0)" fill="#ffffff" class="slogan-text-1" data-fill-palette-color="quaternary" id="text-1"></path></svg></g></svg></g></svg></g></svg></g><g transform="matrix(1,0,0,1,407.250852516,15.974963949633889)"><svg viewBox="0 0 71.43971558853434 71.44789701745643" height="71.44789701745643" width="71.43971558853434"><g><svg xmlns="http://www.w3.org/2000/svg" xmlns:xlink="http://www.w3.org/1999/xlink" version="1.1" x="0" y="0" viewBox="5.007199949916016 4.998623117081335 89.9901040821591 90.00040994122047" enable-background="new 0 0 100 100" xml:space="preserve" height="71.44789701745643" width="71.43971558853434" class="icon-icon-0" data-fill-palette-color="accent" id="icon-0"><path d="M16.171 35.802c-1.241 1.241-3.165 1.333-4.292 0.206l-1.477-1.477c-1.129-1.129-1.037-3.053 0.205-4.294l19.629-19.629c1.242-1.242 3.165-1.333 4.294-0.205l1.477 1.477c1.127 1.127 1.036 3.05-0.206 4.292L16.171 35.802zM43.3 23.672c1.242-1.242 1.334-3.165 0.204-4.294l-1.475-1.475c-1.13-1.13-3.052-1.038-4.294 0.204l-19.63 19.63c-1.241 1.242-1.334 3.165-0.204 4.294l1.475 1.475c1.13 1.13 3.053 1.038 4.294-0.204L43.3 23.672zM81.651 62.021c1.242-1.242 1.335-3.162 0.204-4.292l-1.475-1.476c-1.128-1.127-3.052-1.036-4.294 0.206l-19.63 19.63c-1.24 1.24-1.332 3.165-0.204 4.292l1.477 1.477c1.129 1.129 3.05 1.035 4.292-0.207L81.651 62.021zM89.151 69.522c1.241-1.242 1.333-3.165 0.205-4.292l-1.476-1.477c-1.131-1.13-3.051-1.038-4.293 0.204l-19.63 19.63c-1.242 1.242-1.335 3.165-0.205 4.294l1.476 1.477c1.128 1.127 3.052 1.036 4.293-0.206L89.151 69.522zM91.9 88.935c0.12-0.341 0.112-0.632-0.055-0.797l-4.278-4.28 6.305-6.306c1.033-1.032 1.109-2.631 0.171-3.569l-1.228-1.227c-0.937-0.938-2.535-0.862-3.569 0.172l-16.321 16.32c-1.032 1.032-1.107 2.631-0.169 3.569l1.226 1.227c0.939 0.938 2.537 0.862 3.569-0.17l6.307-6.307 4.279 4.28c0.166 0.165 0.457 0.173 0.798 0.053L91.9 88.935zM94.703 92.244l-2.01-2.008-2.46 2.46 2.009 2.009c0.497 0.497 1.452 0.349 2.132-0.331S95.199 92.741 94.703 92.244zM27.111 7.052l-1.228-1.228c-0.939-0.94-2.535-0.861-3.569 0.171l-6.306 6.306-4.184-4.184c-0.146-0.146-0.393-0.159-0.68-0.082l-3.111 3.11c-0.077 0.288-0.065 0.535 0.082 0.681L12.3 16.01l-6.306 6.307c-1.032 1.032-1.11 2.628-0.171 3.567l1.228 1.228c0.938 0.938 2.537 0.864 3.569-0.168l16.321-16.321C27.975 9.588 28.05 7.989 27.111 7.052zM5.63 5.622C4.951 6.3 4.805 7.256 5.302 7.753l2.009 2.009L9.77 7.303 7.761 5.294C7.264 4.797 6.311 4.941 5.63 5.622zM35.755 33.297l-2.46 2.459 30.666 30.666 2.461-2.459L35.755 33.297z" fill="#ffffff" data-fill-palette-color="accent"></path></svg></g></svg></g></svg></g></svg></g><defs></defs></svg><rect width="395.52" height="85.43286715048058" fill="none" stroke="none" visibility="hidden"></rect></g></svg></g></svg>